HIERARCHY
ROOT joint_Root
{
	OFFSET 0.0 0.0 0.0
	CHANNELS 6 Xposition Yposition Zposition Zrotation Xrotation Yrotation 
	JOINT Hips
	{
		OFFSET 4.5925 91.4895 -427.239
		CHANNELS 6 Xposition Yposition Zposition Zrotation Xrotation Yrotation 
		JOINT Spine
		{
			OFFSET 15.7357 0.0 0.0
			CHANNELS 6 Xposition Yposition Zposition Zrotation Xrotation Yrotation 
			JOINT Chest
			{
				OFFSET 8.98455 -0.406207 0.0
				CHANNELS 6 Xposition Yposition Zposition Zrotation Xrotation Yrotation 
				JOINT Neck
				{
					OFFSET 16.3773 0.0 0.0
					CHANNELS 6 Xposition Yposition Zposition Zrotation Xrotation Yrotation 
					JOINT Head
					{
						OFFSET 6.45672 0.0 0.0
						CHANNELS 6 Xposition Yposition Zposition Zrotation Xrotation Yrotation 
						End Site
						{
							OFFSET 0.0 0.0 0.0
						}
					}
				}
				JOINT Shoulder_L
				{
					OFFSET 12.9942 -0.242716 4.98039
					CHANNELS 6 Xposition Yposition Zposition Zrotation Xrotation Yrotation 
					JOINT UpperArm_L
					{
						OFFSET 5.34809 0.0 0.0
						CHANNELS 6 Xposition Yposition Zposition Zrotation Xrotation Yrotation 
						JOINT LowerArm_L
						{
							OFFSET 24.3286 1.87007e-05 0.0
							CHANNELS 6 Xposition Yposition Zposition Zrotation Xrotation Yrotation 
							JOINT Hand_L
							{
								OFFSET 22.2916 0.0 0.0
								CHANNELS 6 Xposition Yposition Zposition Zrotation Xrotation Yrotation 
								End Site
								{
									OFFSET 0.0 0.0 0.0
								}
							}
						}
					}
				}
				JOINT Shoulder_R
				{
					OFFSET 12.9945 -0.242716 -4.98039
					CHANNELS 6 Xposition Yposition Zposition Zrotation Xrotation Yrotation 
					JOINT UpperArm_R
					{
						OFFSET -5.34813 0.0 0.0
						CHANNELS 6 Xposition Yposition Zposition Zrotation Xrotation Yrotation 
						JOINT LowerArm_R
						{
							OFFSET -24.3289 0.000322201 0.0
							CHANNELS 6 Xposition Yposition Zposition Zrotation Xrotation Yrotation 
							JOINT Hand_R
							{
								OFFSET -22.2915 -0.000108084 0.0
								CHANNELS 6 Xposition Yposition Zposition Zrotation Xrotation Yrotation 
								End Site
								{
									OFFSET 0.0 0.0 0.0
								}
							}
						}
					}
				}
			}
		}
		JOINT UpperLeg_L
		{
			OFFSET -2.19248 -6.46944 0.0
			CHANNELS 6 Xposition Yposition Zposition Zrotation Xrotation Yrotation 
			JOINT LowerLeg_L
			{
				OFFSET 39.0811 0.0 -1.23785e-05
				CHANNELS 6 Xposition Yposition Zposition Zrotation Xrotation Yrotation 
				JOINT Foot_L
				{
					OFFSET 40.9854 0.0 -1.26872e-05
					CHANNELS 6 Xposition Yposition Zposition Zrotation Xrotation Yrotation 
					JOINT Toes_L
					{
						OFFSET 11.7543 0.0 0.0
						CHANNELS 6 Xposition Yposition Zposition Zrotation Xrotation Yrotation 
						End Site
						{
							OFFSET 0.0 0.0 0.0
						}
					}
				}
			}
		}
		JOINT UpperLeg_R
		{
			OFFSET -2.19251 6.46944 0.0
			CHANNELS 6 Xposition Yposition Zposition Zrotation Xrotation Yrotation 
			JOINT LowerLeg_R
			{
				OFFSET -39.0811 -0.00228153 -0.0401928
				CHANNELS 6 Xposition Yposition Zposition Zrotation Xrotation Yrotation 
				JOINT Foot_R
				{
					OFFSET -40.9854 0.0 0.0
					CHANNELS 6 Xposition Yposition Zposition Zrotation Xrotation Yrotation 
					JOINT Toes_R
					{
						OFFSET -11.7543 0.0 0.0
						CHANNELS 6 Xposition Yposition Zposition Zrotation Xrotation Yrotation 
						End Site
						{
							OFFSET 0.0 0.0 0.0
						}
					}
				}
			}
		}
	}
}
MOTION
Frames:	6
Frame Time:	0.0333333
0.000000 0.000000 0.000000 0.000000 0.000000 -0.000000 -1.777800 89.902000 -55.627800 90.309400 -0.574887 3.237370 15.735700 0.000005 -0.000001 88.915900 79.201800 -88.645500 8.984550 -0.406207 -0.000000 13.827800 -0.389744 0.588119 16.377300 -0.000001 -0.000001 1.043170 -4.595510 2.089450 6.456720 -0.000001 -0.000000 -4.495820 -4.049190 -0.004175 12.994200 -0.242716 4.980390 -90.810300 2.915770 -74.462000 5.348090 -0.000007 -0.000001 -62.770300 30.792100 -19.876900 24.328600 0.000019 0.000005 11.742400 17.222600 -35.070100 22.291600 -0.000001 0.000005 15.228500 5.207470 2.531200 12.994500 -0.242716 -4.980390 88.750800 9.607550 -82.556500 -5.348130 -0.000001 -0.000004 -59.324100 30.525800 -15.798400 -24.328900 0.000322 -0.000009 1.206980 3.032900 -21.729700 -22.291500 -0.000108 -0.000004 16.010500 5.365320 -1.842490 -2.192480 -6.469440 -0.000000 -178.194000 -6.422810 -23.281700 39.081100 -0.000007 -0.000012 0.068959 -0.031535 65.421800 40.985400 -0.000006 -0.000013 0.946970 -3.216320 -60.375900 11.754300 -0.000000 0.000003 -0.003542 -0.046596 -18.472000 -2.192510 6.469440 -0.000001 -179.126000 16.449500 164.581000 -39.081100 -0.002282 -0.040193 0.044215 -0.053825 37.250100 -40.985400 0.000008 0.000006 8.870950 3.973740 -69.982600 -11.754300 -0.000006 -0.000006 -0.004411 -0.055646 -18.836900
0.000000 0.000000 0.000000 0.000000 0.000000 -0.000000 -1.769660 90.151800 -53.586200 90.568800 -0.866406 2.907700 15.735700 0.000005 -0.000001 89.536000 79.247400 -89.420100 8.984550 -0.406207 -0.000000 13.738700 -0.166165 0.252026 16.377300 -0.000001 -0.000001 0.960362 -4.611320 2.167220 6.456720 -0.000001 -0.000000 -4.596990 -4.170750 -0.081232 12.994200 -0.242716 4.980390 -90.777700 2.775530 -74.340500 5.348090 -0.000007 -0.000001 -64.085400 31.359200 -17.923800 24.328600 0.000019 0.000005 11.112000 17.449600 -33.224200 22.291600 -0.000001 0.000005 14.650000 5.212570 2.402060 12.994500 -0.242716 -4.980390 88.816100 9.233850 -82.661600 -5.348130 -0.000001 -0.000004 -58.807600 29.579200 -17.468100 -24.328900 0.000322 -0.000009 1.121110 2.710810 -22.499100 -22.291500 -0.000108 -0.000004 16.215900 5.363530 -1.786900 -2.192480 -6.469440 -0.000000 -179.036000 -7.072460 -24.687700 39.081100 -0.000007 -0.000012 0.051817 -0.030838 59.238000 40.985400 -0.000006 -0.000013 0.868121 -2.286890 -61.679600 11.754300 -0.000000 0.000003 -0.003550 -0.046680 -18.475400 -2.192510 6.469440 -0.000001 -179.790000 16.790000 166.250000 -39.081100 -0.002282 -0.040193 0.039254 -0.048955 36.303700 -40.985400 0.000008 0.000006 8.699840 4.571610 -70.730700 -11.754300 -0.000006 -0.000006 -0.004111 -0.052587 -18.712300
0.000000 0.000000 0.000000 0.000000 0.000000 -0.000000 -1.691300 90.277200 -51.575400 90.789500 -1.233340 2.574450 15.735700 0.000005 -0.000001 90.209800 79.292800 -90.243300 8.984550 -0.406207 -0.000000 13.648200 0.075814 -0.076279 16.377300 -0.000001 -0.000001 0.754900 -4.646570 2.246050 6.456720 -0.000001 -0.000000 -4.701400 -4.281490 -0.178151 12.994200 -0.242716 4.980390 -90.781100 2.768310 -74.236700 5.348090 -0.000007 -0.000001 -65.043600 32.068000 -16.257400 24.328600 0.000019 0.000005 10.639500 18.217400 -31.002300 22.291600 -0.000001 0.000005 13.781300 5.213930 2.367470 12.994500 -0.242716 -4.980390 88.862500 8.946110 -82.723400 -5.348130 -0.000001 -0.000004 -58.133100 28.735200 -19.070400 -24.328900 0.000322 -0.000009 0.798349 1.825730 -23.652900 -22.291500 -0.000108 -0.000004 16.494900 5.373980 -2.110120 -2.192480 -6.469440 -0.000000 -179.815000 -7.907140 -25.056500 39.081100 -0.000007 -0.000012 0.035762 -0.029834 50.160900 40.985400 -0.000006 -0.000013 0.412456 -0.974355 -61.640700 11.754300 -0.000000 0.000003 -0.003788 -0.049227 -18.579100 -2.192510 6.469440 -0.000001 179.554000 16.918600 167.732000 -39.081100 -0.002282 -0.040193 0.036104 -0.045730 35.662200 -40.985400 0.000008 0.000006 8.588480 4.975070 -71.627200 -11.754300 -0.000006 -0.000006 -0.003529 -0.046447 -18.462200
0.000000 0.000000 0.000000 0.000000 0.000000 -0.000000 -1.561690 90.278000 -49.561800 90.758100 -1.706980 2.106060 15.735700 0.000005 -0.000001 90.930800 79.358800 -91.032300 8.984550 -0.406207 -0.000000 13.514100 0.336895 -0.243075 16.377300 -0.000001 -0.000001 0.464184 -4.622970 2.334410 6.456720 -0.000001 -0.000000 -4.928930 -4.311940 -0.358989 12.994200 -0.242716 4.980390 -90.822400 2.893800 -74.128100 5.348090 -0.000007 -0.000001 -65.857900 32.610200 -14.743900 24.328600 0.000019 0.000005 10.151300 19.137300 -28.641900 22.291600 -0.000001 0.000005 13.058800 5.207790 2.523660 12.994500 -0.242716 -4.980390 88.904900 8.709550 -82.805000 -5.348130 -0.000001 -0.000004 -57.266900 27.950400 -20.776900 -24.328900 0.000322 -0.000009 0.558091 1.200460 -24.980000 -22.291500 -0.000108 -0.000004 16.998000 5.382340 -2.372090 -2.192480 -6.469440 -0.000000 179.686000 -9.172870 -24.890200 39.081100 -0.000007 -0.000012 0.021800 -0.026493 39.447300 40.985400 -0.000006 -0.000013 -0.841039 0.829079 -59.855600 11.754300 -0.000000 0.000003 -0.003125 -0.042013 -18.285400 -2.192510 6.469440 -0.000001 179.180000 16.772500 168.919000 -39.081100 -0.002282 -0.040193 0.033951 -0.043345 35.274100 -40.985400 0.000008 0.000006 8.539530 5.214550 -72.601000 -11.754300 -0.000006 -0.000006 -0.003373 -0.044753 -18.393300
0.000000 0.000000 0.000000 0.000000 0.000000 -0.000000 -1.397150 90.083300 -47.359600 90.440700 -2.370030 1.926210 15.735700 0.000005 -0.000001 91.864600 79.340300 -91.966400 8.984550 -0.406207 -0.000000 13.543400 0.681021 -0.284565 16.377300 -0.000001 -0.000001 0.263733 -4.546190 2.444030 6.456720 -0.000001 -0.000000 -5.226380 -4.300570 -0.409407 12.994200 -0.242716 4.980390 -90.805200 2.816570 -74.039500 5.348090 -0.000007 -0.000001 -66.998500 32.707100 -13.334800 24.328600 0.000019 0.000005 9.562380 20.233600 -25.970800 22.291600 -0.000001 0.000005 12.402500 5.207850 2.522140 12.994500 -0.242716 -4.980390 88.963500 8.414340 -82.952000 -5.348130 -0.000001 -0.000004 -56.350100 27.460300 -22.313500 -24.328900 0.000322 -0.000009 0.419061 0.841655 -26.531200 -22.291500 -0.000108 -0.000004 17.671000 5.392410 -2.692000 -2.192480 -6.469440 -0.000000 179.320000 -9.725240 -24.484700 39.081100 -0.000007 -0.000012 0.072233 -0.125248 29.972800 40.985400 -0.000006 -0.000013 1.417470 2.466770 -59.347200 11.754300 -0.000000 0.000003 -0.003128 -0.042045 -18.286700 -2.192510 6.469440 -0.000001 178.924000 16.430300 170.325000 -39.081100 -0.002282 -0.040193 0.032565 -0.041246 35.365600 -40.985400 0.000008 0.000006 8.339050 5.433830 -73.875100 -11.754300 -0.000006 -0.000006 -0.003414 -0.045200 -18.411500
0.000000 0.000000 0.000000 0.000000 0.000000 -0.000000 -1.089690 89.762800 -44.921100 90.587000 -3.189230 1.863900 15.735700 0.000005 -0.000001 92.446200 79.317300 -92.731300 8.984550 -0.406207 -0.000000 13.583300 0.887498 -0.676071 16.377300 -0.000001 -0.000001 0.364926 -4.447050 2.725570 6.456720 -0.000001 -0.000000 -5.526470 -4.166670 -0.533437 12.994200 -0.242716 4.980390 -90.795400 2.790760 -74.085000 5.348090 -0.000007 -0.000001 -68.105000 32.345900 -11.962400 24.328600 0.000019 0.000005 8.937590 21.101800 -23.596700 22.291600 -0.000001 0.000005 11.745500 5.189700 2.976250 12.994500 -0.242716 -4.980390 89.015100 8.185410 -83.115000 -5.348130 -0.000001 -0.000004 -55.318300 27.165100 -23.954000 -24.328900 0.000322 -0.000009 -0.010457 -0.017817 -27.623300 -22.291500 -0.000108 -0.000004 18.256900 5.407870 -3.194660 -2.192480 -6.469440 -0.000000 179.178000 -9.589780 -26.083200 39.081100 -0.000007 -0.000012 0.067237 -0.132750 26.861900 40.985400 -0.000006 -0.000013 1.135870 2.736210 -57.098300 11.754300 -0.000000 0.000003 -0.002806 -0.038390 -18.138000 -2.192510 6.469440 -0.000001 178.096000 15.444500 171.618000 -39.081100 -0.002282 -0.040193 0.031050 -0.038114 36.069100 -40.985400 0.000008 0.000006 7.906500 5.189070 -75.293500 -11.754300 -0.000006 -0.000006 -0.003366 -0.044679 -18.390300
